<svg xmlns="http://www.w3.org/2000/svg" xmlns:xlink="http://www.w3.org/1999/xlink" width="500" zoomAndPan="magnify" viewBox="0 0 375 374.999991" height="500" preserveAspectRatio="xMidYMid meet" version="1.0"><defs><clipPath id="id1"><path d="M 32.628906 35.0625 L 337.128906 35.0625 L 337.128906 339.5625 L 32.628906 339.5625 Z M 32.628906 35.0625 " clip-rule="nonzero"/></clipPath></defs><g clip-path="url(#id1)"><path fill="rgb(100%, 8.628845%, 8.628845%)" d="M 337.128906 187.3125 C 337.128906 103.242188 268.949219 35.0625 184.878906 35.0625 C 100.804688 35.0625 32.628906 103.242188 32.628906 187.3125 C 32.628906 271.386719 100.804688 339.5625 184.878906 339.5625 C 268.949219 339.5625 337.128906 271.386719 337.128906 187.3125 Z M 337.128906 187.3125 " fill-opacity="1" fill-rule="nonzero"/></g><path fill="rgb(100%, 100%, 100%)" d="M 260.175781 179.457031 L 152.84375 113.488281 C 149.898438 111.710938 146.03125 111.585938 143.027344 113.304688 C 139.957031 115.023438 138.054688 118.277344 138.054688 121.773438 L 138.054688 253.097656 C 138.054688 256.597656 139.957031 259.847656 142.964844 261.566406 C 144.4375 262.363281 146.03125 262.792969 147.691406 262.792969 C 149.46875 262.792969 151.1875 262.304688 152.722656 261.382812 L 260.050781 195.964844 C 262.9375 194.25 264.714844 191.058594 264.714844 187.742188 C 264.839844 184.367188 263.058594 181.175781 260.175781 179.457031 Z M 260.175781 179.457031 " fill-opacity="1" fill-rule="nonzero"/></svg>