<svg xmlns="http://www.w3.org/2000/svg" xmlns:xlink="http://www.w3.org/1999/xlink" width="500" zoomAndPan="magnify" viewBox="0 0 375 374.999991" height="500" preserveAspectRatio="xMidYMid meet" version="1.0"><defs><g><g id="id1"/></g><clipPath id="id2"><path d="M 119.539062 93.648438 L 255.289062 93.648438 L 255.289062 229.398438 L 119.539062 229.398438 Z M 119.539062 93.648438 " clip-rule="nonzero"/></clipPath></defs><g clip-path="url(#id2)"><path fill="rgb(100%, 8.628845%, 8.628845%)" d="M 255.289062 161.523438 C 255.289062 124.042969 224.894531 93.648438 187.414062 93.648438 C 149.933594 93.648438 119.539062 124.042969 119.539062 161.523438 C 119.539062 199.003906 149.933594 229.398438 187.414062 229.398438 C 224.894531 229.398438 255.289062 199.003906 255.289062 161.523438 Z M 255.289062 161.523438 " fill-opacity="1" fill-rule="nonzero"/></g><path fill="rgb(100%, 100%, 100%)" d="M 220.980469 158.023438 L 173.132812 128.613281 C 171.820312 127.820312 170.097656 127.765625 168.757812 128.53125 C 167.386719 129.296875 166.539062 130.746094 166.539062 132.304688 L 166.539062 190.851562 C 166.539062 192.410156 167.386719 193.863281 168.730469 194.628906 C 169.386719 194.984375 170.097656 195.175781 170.835938 195.175781 C 171.628906 195.175781 172.394531 194.957031 173.078125 194.546875 L 220.925781 165.382812 C 222.214844 164.617188 223.007812 163.195312 223.007812 161.714844 C 223.0625 160.210938 222.269531 158.789062 220.980469 158.023438 Z M 220.980469 158.023438 " fill-opacity="1" fill-rule="nonzero"/><g fill="rgb(100%, 100%, 100%)" fill-opacity="1"><g transform="translate(47.378108, 290.497706)"><g><path d="M 35.40625 0 L 31.6875 -8.59375 L 13.3125 -8.59375 L 9.609375 0 L -1.296875 0 L 18.078125 -41.53125 L 26.6875 -41.53125 L 46.125 0 Z M 16.78125 -16.734375 L 28.21875 -16.734375 L 22.5 -30.046875 Z M 16.78125 -16.734375 "/></g></g></g><g fill="rgb(100%, 100%, 100%)" fill-opacity="1"><g transform="translate(92.199035, 290.497706)"><g><path d="M 32.28125 -28.984375 L 32.28125 0 L 22.09375 0 L 22.09375 -3.890625 C 21.1875 -2.472656 20.035156 -1.390625 18.640625 -0.640625 C 17.242188 0.0976562 15.644531 0.46875 13.84375 0.46875 C 10.113281 0.46875 7.34375 -0.5625 5.53125 -2.625 C 3.726562 -4.6875 2.828125 -7.816406 2.828125 -12.015625 L 2.828125 -28.984375 L 13.3125 -28.984375 L 13.3125 -11.78125 C 13.3125 -8.957031 14.53125 -7.546875 16.96875 -7.546875 C 18.375 -7.546875 19.53125 -8.054688 20.4375 -9.078125 C 21.34375 -10.097656 21.796875 -11.429688 21.796875 -13.078125 L 21.796875 -28.984375 Z M 32.28125 -28.984375 "/></g></g></g><g fill="rgb(100%, 100%, 100%)" fill-opacity="1"><g transform="translate(127.537494, 290.497706)"><g><path d="M 20.375 -7.0625 C 21.238281 -7.0625 22.203125 -7.125 23.265625 -7.25 L 22.734375 0.234375 C 21.484375 0.390625 20.265625 0.46875 19.078125 0.46875 C 14.367188 0.46875 10.941406 -0.519531 8.796875 -2.5 C 6.660156 -4.488281 5.59375 -7.5625 5.59375 -11.71875 L 5.59375 -21.265625 L 0.171875 -21.265625 L 0.171875 -28.984375 L 5.59375 -28.984375 L 5.59375 -37.40625 L 16.078125 -37.40625 L 16.078125 -28.984375 L 23.03125 -28.984375 L 23.03125 -21.265625 L 16.078125 -21.265625 L 16.078125 -11.65625 C 16.078125 -8.59375 17.507812 -7.0625 20.375 -7.0625 Z M 20.375 -7.0625 "/></g></g></g><g fill="rgb(100%, 100%, 100%)" fill-opacity="1"><g transform="translate(151.390946, 290.497706)"><g><path d="M 17.671875 0.46875 C 14.492188 0.46875 11.695312 -0.144531 9.28125 -1.375 C 6.863281 -2.613281 4.992188 -4.375 3.671875 -6.65625 C 2.359375 -8.9375 1.703125 -11.609375 1.703125 -14.671875 C 1.703125 -17.734375 2.359375 -20.390625 3.671875 -22.640625 C 4.992188 -24.898438 6.851562 -26.640625 9.25 -27.859375 C 11.644531 -29.078125 14.453125 -29.6875 17.671875 -29.6875 C 20.890625 -29.6875 23.695312 -29.078125 26.09375 -27.859375 C 28.488281 -26.640625 30.34375 -24.898438 31.65625 -22.640625 C 32.976562 -20.390625 33.640625 -17.734375 33.640625 -14.671875 C 33.640625 -11.609375 32.976562 -8.9375 31.65625 -6.65625 C 30.34375 -4.375 28.488281 -2.613281 26.09375 -1.375 C 23.695312 -0.144531 20.890625 0.46875 17.671875 0.46875 Z M 17.671875 -7.359375 C 21.398438 -7.359375 23.265625 -9.796875 23.265625 -14.671875 C 23.265625 -19.535156 21.398438 -21.96875 17.671875 -21.96875 C 13.941406 -21.96875 12.078125 -19.535156 12.078125 -14.671875 C 12.078125 -9.796875 13.941406 -7.359375 17.671875 -7.359375 Z M 17.671875 -7.359375 "/></g></g></g><g fill="rgb(100%, 100%, 100%)" fill-opacity="1"><g transform="translate(186.729404, 290.497706)"><g><path d="M 13.140625 0 L 13.140625 -32.75 L 0.703125 -32.75 L 0.703125 -41.53125 L 36.515625 -41.53125 L 36.515625 -32.75 L 24.09375 -32.75 L 24.09375 0 Z M 13.140625 0 "/></g></g></g><g fill="rgb(100%, 100%, 100%)" fill-opacity="1"><g transform="translate(223.952579, 290.497706)"><g><path d="M 32.28125 -28.984375 L 32.28125 0 L 22.09375 0 L 22.09375 -3.890625 C 21.1875 -2.472656 20.035156 -1.390625 18.640625 -0.640625 C 17.242188 0.0976562 15.644531 0.46875 13.84375 0.46875 C 10.113281 0.46875 7.34375 -0.5625 5.53125 -2.625 C 3.726562 -4.6875 2.828125 -7.816406 2.828125 -12.015625 L 2.828125 -28.984375 L 13.3125 -28.984375 L 13.3125 -11.78125 C 13.3125 -8.957031 14.53125 -7.546875 16.96875 -7.546875 C 18.375 -7.546875 19.53125 -8.054688 20.4375 -9.078125 C 21.34375 -10.097656 21.796875 -11.429688 21.796875 -13.078125 L 21.796875 -28.984375 Z M 32.28125 -28.984375 "/></g></g></g><g fill="rgb(100%, 100%, 100%)" fill-opacity="1"><g transform="translate(259.291038, 290.497706)"><g><path d="M 22.265625 -29.6875 C 24.773438 -29.6875 26.992188 -29.078125 28.921875 -27.859375 C 30.847656 -26.640625 32.347656 -24.898438 33.421875 -22.640625 C 34.503906 -20.390625 35.046875 -17.769531 35.046875 -14.78125 C 35.046875 -11.800781 34.503906 -9.148438 33.421875 -6.828125 C 32.347656 -4.515625 30.835938 -2.71875 28.890625 -1.4375 C 26.953125 -0.164062 24.742188 0.46875 22.265625 0.46875 C 20.335938 0.46875 18.578125 0.078125 16.984375 -0.703125 C 15.398438 -1.492188 14.195312 -2.578125 13.375 -3.953125 L 13.375 0 L 3.0625 0 L 3.0625 -41.53125 L 13.546875 -41.53125 L 13.546875 -25.5625 C 14.410156 -26.820312 15.617188 -27.820312 17.171875 -28.5625 C 18.722656 -29.3125 20.421875 -29.6875 22.265625 -29.6875 Z M 19.03125 -7.359375 C 20.832031 -7.359375 22.222656 -7.992188 23.203125 -9.265625 C 24.191406 -10.546875 24.6875 -12.382812 24.6875 -14.78125 C 24.6875 -17.0625 24.203125 -18.8125 23.234375 -20.03125 C 22.273438 -21.25 20.890625 -21.859375 19.078125 -21.859375 C 17.234375 -21.859375 15.820312 -21.238281 14.84375 -20 C 13.863281 -18.757812 13.375 -16.984375 13.375 -14.671875 C 13.375 -12.316406 13.863281 -10.507812 14.84375 -9.25 C 15.820312 -7.988281 17.21875 -7.359375 19.03125 -7.359375 Z M 19.03125 -7.359375 "/></g></g></g><g fill="rgb(100%, 100%, 100%)" fill-opacity="1"><g transform="translate(296.101926, 290.497706)"><g><path d="M 29.8125 -12.484375 L 11.90625 -12.484375 C 12.21875 -10.597656 12.898438 -9.242188 13.953125 -8.421875 C 15.015625 -7.597656 16.53125 -7.1875 18.5 -7.1875 C 19.914062 -7.1875 21.347656 -7.421875 22.796875 -7.890625 C 24.242188 -8.359375 25.539062 -9.007812 26.6875 -9.84375 L 29.328125 -2.953125 C 27.878906 -1.890625 26.132812 -1.050781 24.09375 -0.4375 C 22.050781 0.164062 20.007812 0.46875 17.96875 0.46875 C 14.625 0.46875 11.734375 -0.140625 9.296875 -1.359375 C 6.867188 -2.578125 4.992188 -4.320312 3.671875 -6.59375 C 2.359375 -8.875 1.703125 -11.546875 1.703125 -14.609375 C 1.703125 -17.515625 2.320312 -20.113281 3.5625 -22.40625 C 4.800781 -24.707031 6.53125 -26.492188 8.75 -27.765625 C 10.96875 -29.046875 13.472656 -29.6875 16.265625 -29.6875 C 20.421875 -29.6875 23.71875 -28.359375 26.15625 -25.703125 C 28.59375 -23.054688 29.8125 -19.4375 29.8125 -14.84375 Z M 16.546875 -22.625 C 13.765625 -22.625 12.175781 -20.894531 11.78125 -17.4375 L 21.03125 -17.4375 C 20.789062 -20.894531 19.296875 -22.625 16.546875 -22.625 Z M 16.546875 -22.625 "/></g></g></g></svg>